<?xml version="1.0" encoding="UTF-8"?>
<svg width="60px" height="72px" viewBox="0 0 60 72" version="1.1" xmlns="http://www.w3.org/2000/svg" xmlns:xlink="http://www.w3.org/1999/xlink">
    <!-- Generator: Sketch 48.2 (47327) - http://www.bohemiancoding.com/sketch -->
    <title>picto-commande-vocale</title>
    <desc>Created with Sketch.</desc>
    <defs></defs>
    <g id="-" stroke="none" stroke-width="1" fill="none" fill-rule="evenodd">
        <g id="picto-commande-vocale" fill="#143ADB">
            <g id="Group-4-Copy">
                <g id="Group-2-Copy">
                    <g id="Group-35">
                        <g id="Group-32">
                            <polygon id="Fill-80" opacity="0.502604167" points="23.8554217 69.3643434 34.7563881 69.3643434 34.7563881 48.6857143 23.8554217 48.6857143"></polygon>
                            <path d="M29.234983,61.7142857 C23.4692952,61.7142857 18.7951807,66.1471391 18.7951807,71.6160248 L39.6747853,71.6160248 C39.6747853,66.1471391 35.0006708,61.7142857 29.234983,61.7142857" id="Fill-82"></path>
                            <path d="M29.2164304,0 C23.4605869,0 18.7951807,4.42531209 18.7951807,9.88450177 L18.7951807,29.6531462 C18.7951807,35.1119768 23.4605869,39.537648 29.2164304,39.537648 C34.9718953,39.537648 39.6376801,35.1119768 39.6376801,29.6531462 L39.6376801,9.88450177 C39.6376801,4.42531209 34.972274,0 29.2164304,0" id="Fill-84"></path>
                            <path d="M59.2887476,34.2857143 L44.46675,34.2857143 C44.46675,42.0500308 37.8306054,48.3437921 29.6443738,48.3437921 C21.4581422,48.3437921 14.8223762,42.0500308 14.8223762,34.2857143 L0,34.2857143 C0,49.8139883 13.2722892,62.402229 29.6443738,62.402229 C46.0164585,62.402229 59.2887476,49.8139883 59.2887476,34.2857143" id="Fill-86" opacity="0.49830163"></path>
                        </g>
                    </g>
                </g>
            </g>
        </g>
    </g>
</svg>