<?xml version="1.0" encoding="UTF-8"?>
<svg width="40px" height="40px" viewBox="0 0 40 40" version="1.1" xmlns="http://www.w3.org/2000/svg" xmlns:xlink="http://www.w3.org/1999/xlink">
    <!-- Generator: Sketch 48.2 (47327) - http://www.bohemiancoding.com/sketch -->
    <title>picto-attention</title>
    <desc>Created with Sketch.</desc>
    <defs>
        <polygon id="path-1" points="2e-05 0 20 0 20 39.99998 2e-05 39.99998"></polygon>
        <polygon id="path-3" points="2e-05 0 20.00002 0 20.00002 39.99998 2e-05 39.99998"></polygon>
    </defs>
    <g id="-" stroke="none" stroke-width="1" fill="none" fill-rule="evenodd">
        <g id="picto-attention">
            <g id="Group-2">
                <g id="Group-7" opacity="0.501019022">
                    <g id="Group-3" transform="translate(20.000000, 0.000000)">
                        <mask id="mask-2" fill="white">
                            <use xlink:href="#path-1"></use>
                        </mask>
                        <g id="Clip-2"></g>
                        <polygon id="Fill-1" fill="#143ADB" mask="url(#mask-2)" points="2e-05 39.99998 20.00002 39.99998 2e-05 -2e-05"></polygon>
                    </g>
                    <g id="Group-6">
                        <mask id="mask-4" fill="white">
                            <use xlink:href="#path-3"></use>
                        </mask>
                        <g id="Clip-5"></g>
                        <polygon id="Fill-4" fill="#143ADB" mask="url(#mask-4)" points="20.00002 39.99998 2e-05 39.99998 20.00002 -2e-05"></polygon>
                    </g>
                </g>
                <polygon id="Fill-8" fill="#143ADB" points="18.3098 30.639 22.2754 30.639 22.2754 15.5258 18.3098 15.5258"></polygon>
                <path d="M22.27532,33.96458 C22.27532,32.86958 21.38772,31.98178 20.29252,31.98178 C19.19752,31.98178 18.30972,32.86958 18.30972,33.96458 C18.30972,35.05958 19.19752,35.94738 20.29252,35.94738 C21.38772,35.94738 22.27532,35.05958 22.27532,33.96458" id="Fill-9" fill="#143ADB"></path>
            </g>
        </g>
    </g>
</svg>