<svg xmlns="http://www.w3.org/2000/svg" viewBox="0 0 370.99 115.5"><defs><style>.cls-1{fill:#143adb;opacity:0.5;}.cls-2{fill:#ffcca9;opacity:0.67;}.cls-3{fill:#666;}</style></defs><title>logo-horizontal</title><g id="Calque_1" data-name="Calque 1"><path class="cls-1" d="M0,46a46,46,0,0,0,46,46V0A46,46,0,0,0,0,46Z"/><path class="cls-2" d="M73.61,69.46a46,46,0,0,0-46-46V115.5A46,46,0,0,0,73.61,69.46Z"/><path class="cls-3" d="M115.34,72.15a1.41,1.41,0,0,1-.55-1.1,1.46,1.46,0,0,1,1.43-1.43,1.62,1.62,0,0,1,.93.33,17.93,17.93,0,0,0,13,5c5.77,0,9.73-3.24,9.73-7.64V67.2c0-4.06-2.15-6.43-10.89-8.19-9.23-1.87-13-5-13-10.83v-.11C116,42.36,121.22,38,128.37,38a18.88,18.88,0,0,1,12.26,4,1.49,1.49,0,0,1,.6,1.15,1.44,1.44,0,0,1-2.36,1.1,16.51,16.51,0,0,0-10.61-3.63c-5.67,0-9.4,3.25-9.4,7.26v.11c0,4.07,2.09,6.54,11.21,8.41,8.91,1.81,12.64,5,12.64,10.61V67c0,6.21-5.33,10.5-12.75,10.5A21.77,21.77,0,0,1,115.34,72.15Z"/><path class="cls-3" d="M173.52,39.94A1.46,1.46,0,0,1,175,38.51h12.53c8.47,0,14.29,4.34,14.29,11.76v.11c0,8.08-7,12.26-15,12.26H176.38V75.78a1.43,1.43,0,0,1-2.86,0ZM186.93,60c7.15,0,12-3.74,12-9.45v-.11c0-6.1-4.73-9.29-11.66-9.29H176.38V60Z"/><path class="cls-3" d="M231.65,75.56V39.94a1.45,1.45,0,0,1,1.42-1.43h24.85a1.32,1.32,0,0,1,0,2.64H234.5V56.26h20.95a1.32,1.32,0,0,1,0,2.64H234.5V74.35h23.7a1.32,1.32,0,0,1,0,2.64H233.07A1.45,1.45,0,0,1,231.65,75.56Z"/><path class="cls-3" d="M289.88,39.72a1.43,1.43,0,1,1,2.86,0V74.35h21.49a1.32,1.32,0,0,1,0,2.64H291.31a1.46,1.46,0,0,1-1.43-1.43Z"/><path class="cls-3" d="M345.31,39.72a1.43,1.43,0,0,1,2.86,0V74.35h21.5a1.32,1.32,0,0,1,0,2.64H346.74a1.46,1.46,0,0,1-1.43-1.43Z"/></g></svg>