<svg xmlns="http://www.w3.org/2000/svg" viewBox="0 0 99.16 161.65"><defs><style>.cls-1{fill:#143adb;opacity:0.5;}.cls-2{fill:#ffcca9;opacity:0.67;}.cls-3{fill:#666;}</style></defs><title>logo-vertical</title><g id="Calque_1" data-name="Calque 1"><path class="cls-1" d="M9.28,46a46,46,0,0,0,46,46V0A46,46,0,0,0,9.28,46Z"/><path class="cls-2" d="M82.89,69.46a46,46,0,0,0-46-46V115.5A46,46,0,0,0,82.89,69.46Z"/><path class="cls-3" d="M.21,159.57a.59.59,0,0,1-.21-.43.56.56,0,0,1,.55-.55.56.56,0,0,1,.36.13,6.94,6.94,0,0,0,5,1.93c2.23,0,3.76-1.25,3.76-3v0c0-1.57-.83-2.49-4.21-3.17-3.58-.72-5-1.93-5-4.19v0c0-2.21,2-3.92,4.78-3.92A7.27,7.27,0,0,1,10,147.87a.55.55,0,0,1,.23.44.56.56,0,0,1-.55.56.61.61,0,0,1-.36-.13,6.39,6.39,0,0,0-4.11-1.41c-2.19,0-3.64,1.26-3.64,2.81v0c0,1.58.81,2.54,4.34,3.26s4.9,1.94,4.9,4.11v0c0,2.4-2.07,4.06-4.94,4.06A8.44,8.44,0,0,1,.21,159.57Z"/><path class="cls-3" d="M22.73,147.1a.56.56,0,0,1,.56-.55h4.85c3.27,0,5.53,1.68,5.53,4.55v0c0,3.13-2.7,4.75-5.81,4.75h-4V161a.56.56,0,1,1-1.11,0Zm5.19,7.77c2.77,0,4.64-1.45,4.64-3.66v-.05c0-2.36-1.83-3.59-4.51-3.59H23.84v7.3Z"/><path class="cls-3" d="M45.23,160.89V147.1a.56.56,0,0,1,.55-.55H55.4a.51.51,0,0,1,.51.51.52.52,0,0,1-.51.51H46.34v5.85h8.1a.51.51,0,0,1,0,1h-8.1v6h9.17a.51.51,0,1,1,0,1H45.78A.57.57,0,0,1,45.23,160.89Z"/><path class="cls-3" d="M67.77,147a.56.56,0,0,1,1.11,0v13.41H77.2a.51.51,0,1,1,0,1H68.32a.57.57,0,0,1-.55-.55Z"/><path class="cls-3" d="M89.23,147a.55.55,0,0,1,1.1,0v13.41h8.32a.51.51,0,1,1,0,1H89.78a.56.56,0,0,1-.55-.55Z"/></g></svg>