<?xml version="1.0" encoding="utf-8"?>
<!-- Generator: Adobe Illustrator 21.1.0, SVG Export Plug-In . SVG Version: 6.00 Build 0)  -->
<svg version="1.1" id="Layer_1" xmlns="http://www.w3.org/2000/svg" xmlns:xlink="http://www.w3.org/1999/xlink" x="0px" y="0px"
	 viewBox="0 0 1144 768" style="enable-background:new 0 0 1144 768;" xml:space="preserve">
<style type="text/css">
	.st0{fill:#FFFFFF;}
	.st1{fill:none;stroke:#FFFFFF;stroke-width:10;stroke-miterlimit:10;}
</style>
<g>
	<rect x="122" y="71" class="st0" width="341" height="220"/>
	<path d="M458,76v210H127V76H458 M468,66H117v230h351V66L468,66z"/>
</g>
<g>
	<rect x="122" y="421" class="st0" width="341" height="220"/>
	<path d="M458,426v210H127V426H458 M468,416H117v230h351V416L468,416z"/>
</g>
<g>
	<rect x="122" y="421" class="st0" width="341" height="220"/>
	<path d="M458,426v210H127V426H458 M468,416H117v230h351V416L468,416z"/>
</g>
<g>
	<rect x="723" y="251" class="st0" width="341" height="220"/>
	<path d="M1059,256v210H728V256H1059 M1069,246H718v230h351V246L1069,246z"/>
</g>
<g>
	<line class="st1" x1="462" y1="181" x2="718" y2="361"/>
</g>
<line class="st1" x1="462" y1="531" x2="718" y2="361"/>
</svg>
