<?xml version="1.0" encoding="utf-8"?>
<!-- Generator: Adobe Illustrator 22.0.0, SVG Export Plug-In . SVG Version: 6.00 Build 0)  -->
<svg version="1.1" xmlns="http://www.w3.org/2000/svg" xmlns:xlink="http://www.w3.org/1999/xlink" x="0px" y="0px"
	 viewBox="0 0 128 128" style="enable-background:new 0 0 128 128;" xml:space="preserve">
<style type="text/css">
	.st0{opacity:0.5;fill:#2F4D9B;}
	.st1{fill:#1D1D1B;}
	.st2{fill:#FF0000;}
	.st3{opacity:0.5;fill:#CAE6FC;}
	.st4{opacity:0.7;fill:#CAE6FC;}
	.st5{fill:#CAE6FC;}
	.st6{opacity:0.7;fill:#143ADB;}
	.st7{opacity:0.5;}
	.st8{fill:#2F4D9B;}
	.st9{fill:#031347;}
	.st10{opacity:0.5;fill:#143ADB;}
	.st11{fill:#FFE600;}
	.st12{opacity:0.5;fill:#FFCCA9;}
	.st13{fill:#143ADB;}
	.st14{opacity:0.5;fill:#031347;}
	.st15{opacity:0.5;fill:#FFFFFF;}
	.st16{clip-path:url(#SVGID_2_);}
	.st17{opacity:0.5022;clip-path:url(#SVGID_4_);fill:#143ADB;}
	.st18{clip-path:url(#SVGID_6_);}
	.st19{opacity:0.5022;clip-path:url(#SVGID_8_);fill:#FF5B57;}
	.st20{clip-path:url(#SVGID_10_);}
	.st21{opacity:0.5022;clip-path:url(#SVGID_12_);fill:#6BE8C2;}
	.st22{clip-path:url(#SVGID_14_);}
	.st23{opacity:0.5;clip-path:url(#SVGID_16_);fill:#143ADB;}
	.st24{clip-path:url(#SVGID_18_);}
	.st25{clip-path:url(#SVGID_20_);fill:#143ADB;}
	.st26{clip-path:url(#SVGID_22_);}
	.st27{opacity:0.5;clip-path:url(#SVGID_24_);fill:#143ADB;}
	.st28{clip-path:url(#SVGID_26_);}
	.st29{clip-path:url(#SVGID_28_);fill:#FF5B57;}
	.st30{clip-path:url(#SVGID_30_);}
	.st31{clip-path:url(#SVGID_32_);fill:#143ADB;}
	.st32{clip-path:url(#SVGID_34_);}
	.st33{opacity:0.5019;clip-path:url(#SVGID_36_);fill:#143ADB;}
	.st34{clip-path:url(#SVGID_38_);}
	.st35{opacity:0.5019;clip-path:url(#SVGID_40_);fill:#143ADB;}
	.st36{clip-path:url(#SVGID_42_);}
	.st37{opacity:0.5;clip-path:url(#SVGID_44_);fill:#143ADB;}
	.st38{clip-path:url(#SVGID_46_);}
	.st39{clip-path:url(#SVGID_48_);fill:#CAE6FC;}
</style>
<g id="Calque_2">
</g>
<g id="Calque_1">
	<g>
		<rect x="58.2" y="53.7" class="st10" width="11.5" height="23.1"/>
		<polygon class="st10" points="85.1,75.6 40.4,75.6 62.7,120.4 		"/>
		<path class="st10" d="M20.5,126.8h21.1c0-11.6,9.4-21.1,21.1-21.1s21.1,9.4,21.1,21.1h21.1c0-23.3-18.9-42.2-42.2-42.2
			C39.4,84.6,20.5,103.5,20.5,126.8z"/>
		<path class="st10" d="M128,1.2H96c0,17.7-14.3,32-32,32s-32-14.3-32-32H0c0,35.3,28.7,64,64,64C99.3,65.2,128,36.5,128,1.2z"/>
	</g>
	<g>
		<g>
			<defs>
				<circle id="SVGID_13_" cx="660.1" cy="240" r="64"/>
			</defs>
			<clipPath id="SVGID_2_">
				<use xlink:href="#SVGID_13_"  style="overflow:visible;"/>
			</clipPath>
			<g class="st16">
				<defs>
					<rect id="SVGID_15_" x="-2899.5" y="-1411.8" width="4163" height="3120.8"/>
				</defs>
				<clipPath id="SVGID_4_">
					<use xlink:href="#SVGID_15_"  style="overflow:visible;"/>
				</clipPath>
			</g>
		</g>
		<g>
			<defs>
				<circle id="SVGID_17_" cx="660.1" cy="240" r="39.6"/>
			</defs>
			<use xlink:href="#SVGID_17_"  style="overflow:visible;fill-rule:evenodd;clip-rule:evenodd;fill:#143ADB;"/>
			<clipPath id="SVGID_6_">
				<use xlink:href="#SVGID_17_"  style="overflow:visible;"/>
			</clipPath>
			<g class="st18">
				<defs>
					<rect id="SVGID_19_" x="-2899.5" y="-1411.8" width="4163" height="3120.8"/>
				</defs>
				<use xlink:href="#SVGID_19_"  style="overflow:visible;fill:#143ADB;"/>
				<clipPath id="SVGID_8_">
					<use xlink:href="#SVGID_19_"  style="overflow:visible;"/>
				</clipPath>
			</g>
		</g>
	</g>
	<g>
		<g>
			<defs>
				<circle id="SVGID_21_" cx="660.1" cy="64" r="64"/>
			</defs>
			<clipPath id="SVGID_10_">
				<use xlink:href="#SVGID_21_"  style="overflow:visible;"/>
			</clipPath>
			<g class="st20">
				<defs>
					<rect id="SVGID_23_" x="-2899.5" y="-1587.8" width="4163" height="3120.8"/>
				</defs>
				<clipPath id="SVGID_12_">
					<use xlink:href="#SVGID_23_"  style="overflow:visible;"/>
				</clipPath>
			</g>
		</g>
		<g>
			<defs>
				<circle id="SVGID_25_" cx="660.1" cy="64" r="39.6"/>
			</defs>
			<clipPath id="SVGID_14_">
				<use xlink:href="#SVGID_25_"  style="overflow:visible;"/>
			</clipPath>
			<g class="st22">
				<defs>
					<rect id="SVGID_27_" x="-2899.5" y="-1587.8" width="4163" height="3120.8"/>
				</defs>
				<clipPath id="SVGID_16_">
					<use xlink:href="#SVGID_27_"  style="overflow:visible;"/>
				</clipPath>
			</g>
		</g>
	</g>
	<g>
		<g>
			<defs>
				<polygon id="SVGID_29_" points="820.7,45 759.5,45 790.1,106.2 				"/>
			</defs>
			<clipPath id="SVGID_18_">
				<use xlink:href="#SVGID_29_"  style="overflow:visible;"/>
			</clipPath>
			<g class="st24">
				<defs>
					<rect id="SVGID_31_" x="-2489.5" y="-1371.9" width="3620" height="2713.7"/>
				</defs>
				<clipPath id="SVGID_20_">
					<use xlink:href="#SVGID_31_"  style="overflow:visible;"/>
				</clipPath>
			</g>
		</g>
		<g>
			<defs>
				<path id="SVGID_33_" d="M832.7,8.8v27.8c14.8,0,26.9,12.5,26.9,27.8c0,15.4-12,27.8-26.9,27.8v27.8c29.7,0,53.7-24.9,53.7-55.7
					C886.4,33.7,862.4,8.8,832.7,8.8"/>
			</defs>
			<clipPath id="SVGID_22_">
				<use xlink:href="#SVGID_33_"  style="overflow:visible;"/>
			</clipPath>
			<g class="st26">
				<defs>
					<rect id="SVGID_35_" x="-2489.5" y="-1371.9" width="3620" height="2713.7"/>
				</defs>
				<clipPath id="SVGID_24_">
					<use xlink:href="#SVGID_35_"  style="overflow:visible;"/>
				</clipPath>
			</g>
		</g>
		<g>
			<defs>
				<path id="SVGID_37_" d="M776.2,64.4H804c0-15.4,12.5-27.8,27.8-27.8c15.4,0,27.8,12.5,27.8,27.8h27.8
					c0-30.7-24.9-55.7-55.7-55.7C801.1,8.8,776.2,33.7,776.2,64.4"/>
			</defs>
			<clipPath id="SVGID_26_">
				<use xlink:href="#SVGID_37_"  style="overflow:visible;"/>
			</clipPath>
			<g class="st28">
				<defs>
					<rect id="SVGID_39_" x="-2489.5" y="-1371.9" width="3620" height="2713.7"/>
				</defs>
				<clipPath id="SVGID_28_">
					<use xlink:href="#SVGID_39_"  style="overflow:visible;"/>
				</clipPath>
			</g>
		</g>
	</g>
	<g>
		<defs>
			<polygon id="SVGID_41_" points="446,0.4 446,128.4 574,64.4 			"/>
		</defs>
		<clipPath id="SVGID_30_">
			<use xlink:href="#SVGID_41_"  style="overflow:visible;"/>
		</clipPath>
		<g class="st30">
			<defs>
				<rect id="SVGID_43_" x="-3122.2" y="-1741.9" width="4559.5" height="3418"/>
			</defs>
			<clipPath id="SVGID_32_">
				<use xlink:href="#SVGID_43_"  style="overflow:visible;"/>
			</clipPath>
		</g>
	</g>
</g>
</svg>
