<?xml version="1.0" encoding="utf-8"?>
<!-- Generator: Adobe Illustrator 22.0.0, SVG Export Plug-In . SVG Version: 6.00 Build 0)  -->
<svg version="1.1" xmlns="http://www.w3.org/2000/svg" xmlns:xlink="http://www.w3.org/1999/xlink" x="0px" y="0px"
	 viewBox="0 0 1112.9 721.5" style="enable-background:new 0 0 1112.9 721.5;" xml:space="preserve">
<style type="text/css">
	.st0{opacity:0.5;fill:#2F4D9B;}
	.st1{fill:#1D1D1B;}
	.st2{fill:#FF0000;}
	.st3{opacity:0.5;fill:#CAE6FC;}
	.st4{opacity:0.7;fill:#CAE6FC;}
	.st5{fill:#CAE6FC;}
	.st6{opacity:0.7;fill:#143ADB;}
	.st7{opacity:0.5;}
	.st8{fill:#2F4D9B;}
	.st9{fill:#031347;}
	.st10{opacity:0.5;fill:#143ADB;}
	.st11{fill:#FFE600;}
	.st12{opacity:0.5;fill:#FFCCA9;}
	.st13{fill:#143ADB;}
	.st14{opacity:0.5;fill:#031347;}
	.st15{opacity:0.5;fill:#FFFFFF;}
	.st16{clip-path:url(#SVGID_2_);}
	.st17{opacity:0.5022;clip-path:url(#SVGID_4_);fill:#143ADB;}
	.st18{clip-path:url(#SVGID_6_);}
	.st19{opacity:0.5022;clip-path:url(#SVGID_8_);fill:#FF5B57;}
	.st20{clip-path:url(#SVGID_10_);}
	.st21{opacity:0.5022;clip-path:url(#SVGID_12_);fill:#6BE8C2;}
	.st22{clip-path:url(#SVGID_14_);}
	.st23{opacity:0.5;clip-path:url(#SVGID_16_);fill:#143ADB;}
	.st24{clip-path:url(#SVGID_18_);}
	.st25{clip-path:url(#SVGID_20_);fill:#143ADB;}
	.st26{clip-path:url(#SVGID_22_);}
	.st27{opacity:0.5;clip-path:url(#SVGID_24_);fill:#143ADB;}
	.st28{clip-path:url(#SVGID_26_);}
	.st29{clip-path:url(#SVGID_28_);fill:#FF5B57;}
	.st30{clip-path:url(#SVGID_30_);}
	.st31{clip-path:url(#SVGID_32_);fill:#143ADB;}
	.st32{clip-path:url(#SVGID_34_);}
	.st33{opacity:0.5019;clip-path:url(#SVGID_36_);fill:#143ADB;}
	.st34{clip-path:url(#SVGID_38_);}
	.st35{opacity:0.5019;clip-path:url(#SVGID_40_);fill:#143ADB;}
	.st36{clip-path:url(#SVGID_42_);}
	.st37{opacity:0.5;clip-path:url(#SVGID_44_);fill:#143ADB;}
	.st38{clip-path:url(#SVGID_46_);}
	.st39{clip-path:url(#SVGID_48_);fill:#CAE6FC;}
</style>
<g id="Calque_2">
</g>
<g id="Calque_1">
	<path class="st3" d="M183.8,328.7c0-94.5,76.6-171.1,171.1-171.1S526,234.1,526,328.7H183.8z"/>
	<rect x="183.8" y="670.9" class="st3" width="344.2" height="344.2"/>
	<rect x="183.8" y="328.7" class="st3" width="342.2" height="342.2"/>
	<path class="st4" d="M216.7,330.3c0-76,61.6-137.6,137.6-137.6s137.6,61.6,137.6,137.6H216.7z"/>
	<rect x="216.7" y="605.5" class="st4" width="275.2" height="275.2"/>
	<rect x="216.7" y="330.3" class="st4" width="275.2" height="275.2"/>
	<path class="st5" d="M254.4,322.3c0-55.2,44.7-99.9,99.9-99.9s99.9,44.7,99.9,99.9H254.4z"/>
	<polygon class="st5" points="446.8,284.6 354.9,192.7 263.1,284.6 	"/>
	<rect x="254.4" y="522.1" class="st5" width="199.8" height="199.8"/>
	<rect x="254.4" y="322.3" class="st5" width="199.8" height="199.8"/>
	<rect y="596.7" class="st6" width="125.2" height="125.2"/>
	<rect y="474.5" class="st6" width="125.2" height="125.2"/>
	<rect y="352.7" class="st6" width="125.2" height="125.2"/>
	<rect y="230.5" class="st6" width="125.2" height="125.2"/>
	<rect y="104" class="st6" width="125.2" height="125.2"/>
	<rect y="-18.2" class="st6" width="125.2" height="125.2"/>
	<path class="st6" d="M771.2,621.9c-0.3-10.1-9.8-18.2-21.5-18.2v0.1H406.8v-0.1c-11.7,0-21.2,8.1-21.5,18.2h-0.3v118.6h386.7V621.9
		H771.2z"/>
	<circle class="st9" cx="789.6" cy="250.1" r="28.9"/>
	<polygon class="st9" points="812.4,232.5 789.6,209.8 766.9,232.5 	"/>
	<rect x="775.2" y="661.6" class="st9" width="28.9" height="57.9"/>
	<rect x="775.2" y="603.7" class="st9" width="28.9" height="57.9"/>
	<rect x="775.2" y="545.8" class="st9" width="28.9" height="57.9"/>
	<rect x="775.2" y="488" class="st9" width="28.9" height="57.9"/>
	<rect x="775.2" y="430.1" class="st9" width="28.9" height="57.9"/>
	<rect x="775.2" y="372.2" class="st9" width="28.9" height="57.9"/>
	<rect x="775.2" y="314.3" class="st9" width="28.9" height="57.9"/>
	<rect x="775.2" y="256.4" class="st9" width="28.9" height="57.9"/>
	<circle class="st9" cx="938.2" cy="250.1" r="28.9"/>
	<polygon class="st9" points="960.9,232.5 938.2,209.8 915.5,232.5 	"/>
	<rect x="923.7" y="661.6" class="st9" width="28.9" height="57.9"/>
	<rect x="923.7" y="603.7" class="st9" width="28.9" height="57.9"/>
	<rect x="923.7" y="545.8" class="st9" width="28.9" height="57.9"/>
	<rect x="923.7" y="488" class="st9" width="28.9" height="57.9"/>
	<rect x="923.7" y="430.1" class="st9" width="28.9" height="57.9"/>
	<rect x="923.7" y="372.2" class="st9" width="28.9" height="57.9"/>
	<rect x="923.7" y="314.3" class="st9" width="28.9" height="57.9"/>
	<rect x="923.7" y="256.4" class="st9" width="28.9" height="57.9"/>
	<circle class="st9" cx="1089.8" cy="250.1" r="28.9"/>
	<polygon class="st9" points="1112.5,232.5 1089.8,209.8 1067.1,232.5 	"/>
	<rect x="1075.3" y="661.6" class="st9" width="28.9" height="57.9"/>
	<rect x="1075.3" y="603.7" class="st9" width="28.9" height="57.9"/>
	<rect x="1075.3" y="545.8" class="st9" width="28.9" height="57.9"/>
	<rect x="1075.3" y="488" class="st9" width="28.9" height="57.9"/>
	<rect x="1075.3" y="430.1" class="st9" width="28.9" height="57.9"/>
	<rect x="1075.3" y="372.2" class="st9" width="28.9" height="57.9"/>
	<rect x="1075.3" y="314.3" class="st9" width="28.9" height="57.9"/>
	<rect x="1075.3" y="256.4" class="st9" width="28.9" height="57.9"/>
	<path class="st9" d="M952.6,268.5h-44.4c0,24.5-19.9,44.4-44.4,44.4s-44.4-19.9-44.4-44.4h-44.4c0,49,39.7,88.7,88.7,88.7
		C912.9,357.2,952.6,317.5,952.6,268.5z"/>
	<path class="st9" d="M1101.2,268.5h-44.4c0,24.5-19.9,44.4-44.4,44.4c-24.5,0-44.4-19.9-44.4-44.4h-44.4c0,49,39.7,88.7,88.7,88.7
		C1061.5,357.2,1101.2,317.5,1101.2,268.5z"/>
	<path class="st9" d="M1252.8,268.5h-44.4c0,24.5-19.9,44.4-44.4,44.4c-24.5,0-44.4-19.9-44.4-44.4h-44.4c0,49,39.7,88.7,88.7,88.7
		C1213.1,357.2,1252.8,317.5,1252.8,268.5z"/>
	<g>
		<g>
			<defs>
				<circle id="SVGID_13_" cx="3488.6" cy="1633.1" r="64"/>
			</defs>
			<clipPath id="SVGID_2_">
				<use xlink:href="#SVGID_13_"  style="overflow:visible;"/>
			</clipPath>
			<g class="st16">
				<defs>
					<rect id="SVGID_15_" x="-71" y="-18.7" width="4163" height="3120.8"/>
				</defs>
				<clipPath id="SVGID_4_">
					<use xlink:href="#SVGID_15_"  style="overflow:visible;"/>
				</clipPath>
			</g>
		</g>
		<g>
			<defs>
				<circle id="SVGID_17_" cx="3488.6" cy="1633.1" r="39.6"/>
			</defs>
			<use xlink:href="#SVGID_17_"  style="overflow:visible;fill-rule:evenodd;clip-rule:evenodd;fill:#143ADB;"/>
			<clipPath id="SVGID_6_">
				<use xlink:href="#SVGID_17_"  style="overflow:visible;"/>
			</clipPath>
			<g class="st18">
				<defs>
					<rect id="SVGID_19_" x="-71" y="-18.7" width="4163" height="3120.8"/>
				</defs>
				<use xlink:href="#SVGID_19_"  style="overflow:visible;fill:#143ADB;"/>
				<clipPath id="SVGID_8_">
					<use xlink:href="#SVGID_19_"  style="overflow:visible;"/>
				</clipPath>
			</g>
		</g>
	</g>
	<g>
		<g>
			<defs>
				<circle id="SVGID_21_" cx="3488.6" cy="1457.1" r="64"/>
			</defs>
			<clipPath id="SVGID_10_">
				<use xlink:href="#SVGID_21_"  style="overflow:visible;"/>
			</clipPath>
			<g class="st20">
				<defs>
					<rect id="SVGID_23_" x="-71" y="-194.7" width="4163" height="3120.8"/>
				</defs>
				<clipPath id="SVGID_12_">
					<use xlink:href="#SVGID_23_"  style="overflow:visible;"/>
				</clipPath>
			</g>
		</g>
		<g>
			<defs>
				<circle id="SVGID_25_" cx="3488.6" cy="1457.1" r="39.6"/>
			</defs>
			<clipPath id="SVGID_14_">
				<use xlink:href="#SVGID_25_"  style="overflow:visible;"/>
			</clipPath>
			<g class="st22">
				<defs>
					<rect id="SVGID_27_" x="-71" y="-194.7" width="4163" height="3120.8"/>
				</defs>
				<clipPath id="SVGID_16_">
					<use xlink:href="#SVGID_27_"  style="overflow:visible;"/>
				</clipPath>
			</g>
		</g>
	</g>
	<g>
		<g>
			<defs>
				<polygon id="SVGID_29_" points="3649.3,1438.1 3588.1,1438.1 3618.7,1499.3 				"/>
			</defs>
			<clipPath id="SVGID_18_">
				<use xlink:href="#SVGID_29_"  style="overflow:visible;"/>
			</clipPath>
			<g class="st24">
				<defs>
					<rect id="SVGID_31_" x="339" y="21.2" width="3620" height="2713.7"/>
				</defs>
				<clipPath id="SVGID_20_">
					<use xlink:href="#SVGID_31_"  style="overflow:visible;"/>
				</clipPath>
			</g>
		</g>
		<g>
			<defs>
				<path id="SVGID_33_" d="M3661.3,1401.9v27.8c14.8,0,26.9,12.5,26.9,27.8c0,15.4-12,27.8-26.9,27.8v27.8
					c29.7,0,53.7-24.9,53.7-55.7C3715,1426.8,3690.9,1401.9,3661.3,1401.9"/>
			</defs>
			<clipPath id="SVGID_22_">
				<use xlink:href="#SVGID_33_"  style="overflow:visible;"/>
			</clipPath>
			<g class="st26">
				<defs>
					<rect id="SVGID_35_" x="339" y="21.2" width="3620" height="2713.7"/>
				</defs>
				<clipPath id="SVGID_24_">
					<use xlink:href="#SVGID_35_"  style="overflow:visible;"/>
				</clipPath>
			</g>
		</g>
		<g>
			<defs>
				<path id="SVGID_37_" d="M3604.7,1457.6h27.8c0-15.4,12.5-27.8,27.8-27.8c15.4,0,27.8,12.5,27.8,27.8h27.8
					c0-30.7-24.9-55.7-55.7-55.7C3629.7,1401.9,3604.7,1426.8,3604.7,1457.6"/>
			</defs>
			<clipPath id="SVGID_26_">
				<use xlink:href="#SVGID_37_"  style="overflow:visible;"/>
			</clipPath>
			<g class="st28">
				<defs>
					<rect id="SVGID_39_" x="339" y="21.2" width="3620" height="2713.7"/>
				</defs>
				<clipPath id="SVGID_28_">
					<use xlink:href="#SVGID_39_"  style="overflow:visible;"/>
				</clipPath>
			</g>
		</g>
	</g>
	<g>
		<defs>
			<polygon id="SVGID_41_" points="3274.6,1393.6 3274.6,1521.6 3402.6,1457.6 			"/>
		</defs>
		<clipPath id="SVGID_30_">
			<use xlink:href="#SVGID_41_"  style="overflow:visible;"/>
		</clipPath>
		<g class="st30">
			<defs>
				<rect id="SVGID_43_" x="-293.6" y="-348.8" width="4559.5" height="3418"/>
			</defs>
			<clipPath id="SVGID_32_">
				<use xlink:href="#SVGID_43_"  style="overflow:visible;"/>
			</clipPath>
		</g>
	</g>
	<g>
		<polygon class="st10" points="112.4,137.5 125.2,137.5 112.4,111.8 		"/>
		
			<rect x="81.4" y="-88" transform="matrix(-1 -1.689416e-11 1.689416e-11 -1 222.4474 10.2282)" class="st9" width="59.6" height="186.3"/>
		<path class="st9" d="M-97.4,157.3h59.6c0,32.9,26.7,59.6,59.6,59.6s59.6-26.7,59.6-59.6H141c0,65.8-53.4,119.2-119.2,119.2
			C-44,276.4-97.4,223.1-97.4,157.3z"/>
		
			<rect x="81.4" y="94.6" transform="matrix(-1 -5.630729e-12 5.630729e-12 -1 222.442 252.1097)" class="st9" width="59.6" height="62.8"/>
	</g>
	<g>
		<polygon class="st10" points="293.2,26.2 306.1,26.2 293.2,0.5 		"/>
		<path class="st9" d="M83.5,45.9h59.6c0,32.9,26.7,59.6,59.6,59.6s59.6-26.7,59.6-59.6h59.6c0,65.8-53.4,119.2-119.2,119.2
			C136.9,165.1,83.5,111.8,83.5,45.9z"/>
		
			<rect x="262.3" y="-16.7" transform="matrix(-1 -5.630729e-12 5.630729e-12 -1 584.1879 29.4637)" class="st9" width="59.6" height="62.8"/>
		
			<rect x="83.6" y="-16.7" transform="matrix(-1 -5.630729e-12 5.630729e-12 -1 226.8362 29.4637)" class="st9" width="59.6" height="62.8"/>
	</g>
	<path class="st9" d="M1212.4,582.9c-0.4-12.2-11.9-22-26.1-22v0.2H771.6v-0.2c-14.2,0-25.7,9.8-26.1,22h-0.4v143.4h467.8V582.9
		H1212.4z"/>
	<g>
		<defs>
			<rect id="SVGID_45_" x="-480" y="430" width="78.7" height="78.7"/>
		</defs>
		<clipPath id="SVGID_34_">
			<use xlink:href="#SVGID_45_"  style="overflow:visible;"/>
		</clipPath>
		<g class="st32">
			<defs>
				<rect id="SVGID_47_" x="-563" y="-110" width="1366" height="1024"/>
			</defs>
			<clipPath id="SVGID_36_">
				<use xlink:href="#SVGID_47_"  style="overflow:visible;"/>
			</clipPath>
		</g>
	</g>
</g>
</svg>
