<?xml version="1.0" encoding="utf-8"?>
<!-- Generator: Adobe Illustrator 22.0.0, SVG Export Plug-In . SVG Version: 6.00 Build 0)  -->
<svg version="1.1" xmlns="http://www.w3.org/2000/svg" xmlns:xlink="http://www.w3.org/1999/xlink" x="0px" y="0px"
	 viewBox="0 0 128 128" style="enable-background:new 0 0 128 128;" xml:space="preserve">
<style type="text/css">
	.st0{opacity:0.5;fill:#2F4D9B;}
	.st1{fill:#1D1D1B;}
	.st2{fill:#FF0000;}
	.st3{opacity:0.5;fill:#CAE6FC;}
	.st4{opacity:0.7;fill:#CAE6FC;}
	.st5{fill:#CAE6FC;}
	.st6{opacity:0.7;fill:#143ADB;}
	.st7{opacity:0.5;}
	.st8{fill:#2F4D9B;}
	.st9{fill:#031347;}
	.st10{opacity:0.5;fill:#143ADB;}
	.st11{fill:#FFE600;}
	.st12{opacity:0.5;fill:#FFCCA9;}
	.st13{fill:#143ADB;}
	.st14{opacity:0.5;fill:#031347;}
	.st15{opacity:0.5;fill:#FFFFFF;}
	.st16{clip-path:url(#SVGID_2_);}
	.st17{opacity:0.5022;clip-path:url(#SVGID_4_);fill:#143ADB;}
	.st18{clip-path:url(#SVGID_6_);}
	.st19{opacity:0.5022;clip-path:url(#SVGID_8_);fill:#FF5B57;}
	.st20{clip-path:url(#SVGID_10_);}
	.st21{opacity:0.5022;clip-path:url(#SVGID_12_);fill:#6BE8C2;}
	.st22{clip-path:url(#SVGID_14_);}
	.st23{opacity:0.5;clip-path:url(#SVGID_16_);fill:#143ADB;}
	.st24{clip-path:url(#SVGID_18_);}
	.st25{clip-path:url(#SVGID_20_);fill:#143ADB;}
	.st26{clip-path:url(#SVGID_22_);}
	.st27{opacity:0.5;clip-path:url(#SVGID_24_);fill:#143ADB;}
	.st28{clip-path:url(#SVGID_26_);}
	.st29{clip-path:url(#SVGID_28_);fill:#FF5B57;}
	.st30{clip-path:url(#SVGID_30_);}
	.st31{clip-path:url(#SVGID_32_);fill:#143ADB;}
	.st32{clip-path:url(#SVGID_34_);}
	.st33{opacity:0.5019;clip-path:url(#SVGID_36_);fill:#143ADB;}
	.st34{clip-path:url(#SVGID_38_);}
	.st35{opacity:0.5019;clip-path:url(#SVGID_40_);fill:#143ADB;}
	.st36{clip-path:url(#SVGID_42_);}
	.st37{opacity:0.5;clip-path:url(#SVGID_44_);fill:#143ADB;}
	.st38{clip-path:url(#SVGID_46_);}
	.st39{clip-path:url(#SVGID_48_);fill:#CAE6FC;}
</style>
<g id="Calque_2">
</g>
<g id="Calque_1">
	<g>
		
			<rect x="71.9" y="1.3" transform="matrix(-0.9941 -0.1088 0.1088 -0.9941 166.2766 63.2521)" class="st10" width="25.8" height="51.7"/>
		<circle class="st10" cx="80.4" cy="67.5" r="25.8"/>
		<path class="st10" d="M54.5,70.1C38.1,74,27.8,90.5,31.7,106.9l59.6-14C87.5,76.5,71,66.3,54.5,70.1z"/>
		<path class="st10" d="M45.5,127.5l-2.2-9.4c-5.2,1.2-10.4-2-11.6-7.2c-1.2-5.2,2-10.4,7.2-11.6l-2.2-9.4
			c-10.4,2.4-16.9,12.9-14.5,23.3C24.7,123.5,35.1,129.9,45.5,127.5z"/>
		<path class="st10" d="M54.9,125.3l-2.2-9.4c-5.2,1.2-10.4-2-11.6-7.2s2-10.4,7.2-11.6L46,87.6c-10.4,2.4-16.9,12.9-14.5,23.3
			C34,121.3,44.5,127.7,54.9,125.3z"/>
		<path class="st10" d="M64.2,123.1l-2.2-9.4c-5.2,1.2-10.4-2-11.6-7.2c-1.2-5.2,2-10.4,7.2-11.6l-2.2-9.4
			C45,87.8,38.5,98.2,41,108.6C43.4,119.1,53.8,125.5,64.2,123.1z"/>
		<path class="st10" d="M73.6,120.9l-2.2-9.4c-5.2,1.2-10.4-2-11.6-7.2s2-10.4,7.2-11.6l-2.2-9.4C54.4,85.6,47.9,96,50.3,106.5
			C52.8,116.9,63.2,123.4,73.6,120.9z"/>
		<path class="st10" d="M70.7,81.8l2.2,9.4c5.2-1.2,10.4,2,11.6,7.2c1.2,5.2-2,10.4-7.2,11.6l2.2,9.4c10.4-2.4,16.9-12.9,14.5-23.3
			C91.5,85.8,81.1,79.4,70.7,81.8z"/>
	</g>
	<g>
		<g>
			<defs>
				<circle id="SVGID_13_" cx="1264.1" cy="404" r="64"/>
			</defs>
			<clipPath id="SVGID_2_">
				<use xlink:href="#SVGID_13_"  style="overflow:visible;"/>
			</clipPath>
			<g class="st16">
				<defs>
					<rect id="SVGID_15_" x="-2295.5" y="-1247.8" width="4163" height="3120.8"/>
				</defs>
				<clipPath id="SVGID_4_">
					<use xlink:href="#SVGID_15_"  style="overflow:visible;"/>
				</clipPath>
			</g>
		</g>
		<g>
			<defs>
				<circle id="SVGID_17_" cx="1264.1" cy="404" r="39.6"/>
			</defs>
			<use xlink:href="#SVGID_17_"  style="overflow:visible;fill-rule:evenodd;clip-rule:evenodd;fill:#143ADB;"/>
			<clipPath id="SVGID_6_">
				<use xlink:href="#SVGID_17_"  style="overflow:visible;"/>
			</clipPath>
			<g class="st18">
				<defs>
					<rect id="SVGID_19_" x="-2295.5" y="-1247.8" width="4163" height="3120.8"/>
				</defs>
				<use xlink:href="#SVGID_19_"  style="overflow:visible;fill:#143ADB;"/>
				<clipPath id="SVGID_8_">
					<use xlink:href="#SVGID_19_"  style="overflow:visible;"/>
				</clipPath>
			</g>
		</g>
	</g>
	<g>
		<g>
			<defs>
				<circle id="SVGID_21_" cx="1264.1" cy="228" r="64"/>
			</defs>
			<clipPath id="SVGID_10_">
				<use xlink:href="#SVGID_21_"  style="overflow:visible;"/>
			</clipPath>
			<g class="st20">
				<defs>
					<rect id="SVGID_23_" x="-2295.5" y="-1423.8" width="4163" height="3120.8"/>
				</defs>
				<clipPath id="SVGID_12_">
					<use xlink:href="#SVGID_23_"  style="overflow:visible;"/>
				</clipPath>
			</g>
		</g>
		<g>
			<defs>
				<circle id="SVGID_25_" cx="1264.1" cy="228" r="39.6"/>
			</defs>
			<clipPath id="SVGID_14_">
				<use xlink:href="#SVGID_25_"  style="overflow:visible;"/>
			</clipPath>
			<g class="st22">
				<defs>
					<rect id="SVGID_27_" x="-2295.5" y="-1423.8" width="4163" height="3120.8"/>
				</defs>
				<clipPath id="SVGID_16_">
					<use xlink:href="#SVGID_27_"  style="overflow:visible;"/>
				</clipPath>
			</g>
		</g>
	</g>
	<g>
		<g>
			<defs>
				<polygon id="SVGID_29_" points="1424.7,209 1363.5,209 1394.1,270.2 				"/>
			</defs>
			<clipPath id="SVGID_18_">
				<use xlink:href="#SVGID_29_"  style="overflow:visible;"/>
			</clipPath>
			<g class="st24">
				<defs>
					<rect id="SVGID_31_" x="-1885.5" y="-1207.9" width="3620" height="2713.7"/>
				</defs>
				<clipPath id="SVGID_20_">
					<use xlink:href="#SVGID_31_"  style="overflow:visible;"/>
				</clipPath>
			</g>
		</g>
		<g>
			<defs>
				<path id="SVGID_33_" d="M1436.7,172.8v27.8c14.8,0,26.9,12.5,26.9,27.8c0,15.4-12,27.8-26.9,27.8v27.8
					c29.7,0,53.7-24.9,53.7-55.7C1490.4,197.7,1466.4,172.8,1436.7,172.8"/>
			</defs>
			<clipPath id="SVGID_22_">
				<use xlink:href="#SVGID_33_"  style="overflow:visible;"/>
			</clipPath>
			<g class="st26">
				<defs>
					<rect id="SVGID_35_" x="-1885.5" y="-1207.9" width="3620" height="2713.7"/>
				</defs>
				<clipPath id="SVGID_24_">
					<use xlink:href="#SVGID_35_"  style="overflow:visible;"/>
				</clipPath>
			</g>
		</g>
		<g>
			<defs>
				<path id="SVGID_37_" d="M1380.2,228.4h27.8c0-15.4,12.5-27.8,27.8-27.8c15.4,0,27.8,12.5,27.8,27.8h27.8
					c0-30.7-24.9-55.7-55.7-55.7C1405.1,172.8,1380.2,197.7,1380.2,228.4"/>
			</defs>
			<clipPath id="SVGID_26_">
				<use xlink:href="#SVGID_37_"  style="overflow:visible;"/>
			</clipPath>
			<g class="st28">
				<defs>
					<rect id="SVGID_39_" x="-1885.5" y="-1207.9" width="3620" height="2713.7"/>
				</defs>
				<clipPath id="SVGID_28_">
					<use xlink:href="#SVGID_39_"  style="overflow:visible;"/>
				</clipPath>
			</g>
		</g>
	</g>
	<g>
		<defs>
			<polygon id="SVGID_41_" points="1050,164.4 1050,292.4 1178,228.4 			"/>
		</defs>
		<clipPath id="SVGID_30_">
			<use xlink:href="#SVGID_41_"  style="overflow:visible;"/>
		</clipPath>
		<g class="st30">
			<defs>
				<rect id="SVGID_43_" x="-2518.2" y="-1577.9" width="4559.5" height="3418"/>
			</defs>
			<clipPath id="SVGID_32_">
				<use xlink:href="#SVGID_43_"  style="overflow:visible;"/>
			</clipPath>
		</g>
	</g>
</g>
</svg>
