<?xml version="1.0" encoding="utf-8"?>
<!-- Generator: Adobe Illustrator 22.0.0, SVG Export Plug-In . SVG Version: 6.00 Build 0)  -->
<svg version="1.1" xmlns="http://www.w3.org/2000/svg" xmlns:xlink="http://www.w3.org/1999/xlink" x="0px" y="0px"
	 viewBox="0 0 128 128" style="enable-background:new 0 0 128 128;" xml:space="preserve">
<style type="text/css">
	.st0{opacity:0.5;fill:#2F4D9B;}
	.st1{fill:#1D1D1B;}
	.st2{fill:#FF0000;}
	.st3{opacity:0.5;fill:#CAE6FC;}
	.st4{opacity:0.7;fill:#CAE6FC;}
	.st5{fill:#CAE6FC;}
	.st6{opacity:0.7;fill:#143ADB;}
	.st7{opacity:0.5;}
	.st8{fill:#2F4D9B;}
	.st9{fill:#031347;}
	.st10{opacity:0.5;fill:#143ADB;}
	.st11{fill:#FFE600;}
	.st12{opacity:0.5;fill:#FFCCA9;}
	.st13{fill:#143ADB;}
	.st14{opacity:0.5;fill:#031347;}
	.st15{opacity:0.5;fill:#FFFFFF;}
	.st16{clip-path:url(#SVGID_2_);}
	.st17{opacity:0.5022;clip-path:url(#SVGID_4_);fill:#143ADB;}
	.st18{clip-path:url(#SVGID_6_);}
	.st19{opacity:0.5022;clip-path:url(#SVGID_8_);fill:#FF5B57;}
	.st20{clip-path:url(#SVGID_10_);}
	.st21{opacity:0.5022;clip-path:url(#SVGID_12_);fill:#6BE8C2;}
	.st22{clip-path:url(#SVGID_14_);}
	.st23{opacity:0.5;clip-path:url(#SVGID_16_);fill:#143ADB;}
	.st24{clip-path:url(#SVGID_18_);}
	.st25{clip-path:url(#SVGID_20_);fill:#143ADB;}
	.st26{clip-path:url(#SVGID_22_);}
	.st27{opacity:0.5;clip-path:url(#SVGID_24_);fill:#143ADB;}
	.st28{clip-path:url(#SVGID_26_);}
	.st29{clip-path:url(#SVGID_28_);fill:#FF5B57;}
	.st30{clip-path:url(#SVGID_30_);}
	.st31{clip-path:url(#SVGID_32_);fill:#143ADB;}
	.st32{clip-path:url(#SVGID_34_);}
	.st33{opacity:0.5019;clip-path:url(#SVGID_36_);fill:#143ADB;}
	.st34{clip-path:url(#SVGID_38_);}
	.st35{opacity:0.5019;clip-path:url(#SVGID_40_);fill:#143ADB;}
	.st36{clip-path:url(#SVGID_42_);}
	.st37{opacity:0.5;clip-path:url(#SVGID_44_);fill:#143ADB;}
	.st38{clip-path:url(#SVGID_46_);}
	.st39{clip-path:url(#SVGID_48_);fill:#CAE6FC;}
</style>
<g id="Calque_2">
</g>
<g id="Calque_1">
	<g>
		<polygon class="st10" points="3.1,100.3 33,100.3 33,70.3 		"/>
		<rect x="42.5" y="38.9" class="st10" width="8.6" height="10.7"/>
		
			<rect x="13.8" y="44.9" transform="matrix(-1.836970e-16 1 -1 -1.836970e-16 77.7277 37.4356)" class="st10" width="12.7" height="25.3"/>
		
			<rect x="70" y="40.4" transform="matrix(-1.836970e-16 1 -1 -1.836970e-16 133.9582 -18.7949)" class="st10" width="12.7" height="34.4"/>
		
			<rect x="36.2" y="40.4" transform="matrix(-1.836970e-16 1 -1 -1.836970e-16 102.6071 12.5562)" class="st10" width="17.7" height="34.3"/>
		
			<rect x="40.8" y="11" transform="matrix(-1.836970e-16 1 -1 -1.836970e-16 80.5653 -13.0551)" class="st10" width="12" height="45.6"/>
		
			<rect x="94.5" y="35.1" transform="matrix(-1.836970e-16 1 -1 -1.836970e-16 163.1153 -47.952)" class="st10" width="22.1" height="44.9"/>
		<polygon class="st10" points="33,66.4 48,66.4 33,96.4 		"/>
		<path class="st10" d="M15,56.9c0-8.3-6.7-15-15-15v29.9C8.3,71.9,15,65.2,15,56.9z"/>
	</g>
	<g>
		<g>
			<defs>
				<circle id="SVGID_13_" cx="962.1" cy="574" r="64"/>
			</defs>
			<clipPath id="SVGID_2_">
				<use xlink:href="#SVGID_13_"  style="overflow:visible;"/>
			</clipPath>
			<g class="st16">
				<defs>
					<rect id="SVGID_15_" x="-2597.5" y="-1077.8" width="4163" height="3120.8"/>
				</defs>
				<clipPath id="SVGID_4_">
					<use xlink:href="#SVGID_15_"  style="overflow:visible;"/>
				</clipPath>
			</g>
		</g>
		<g>
			<defs>
				<circle id="SVGID_17_" cx="962.1" cy="574" r="39.6"/>
			</defs>
			<use xlink:href="#SVGID_17_"  style="overflow:visible;fill-rule:evenodd;clip-rule:evenodd;fill:#143ADB;"/>
			<clipPath id="SVGID_6_">
				<use xlink:href="#SVGID_17_"  style="overflow:visible;"/>
			</clipPath>
			<g class="st18">
				<defs>
					<rect id="SVGID_19_" x="-2597.5" y="-1077.8" width="4163" height="3120.8"/>
				</defs>
				<use xlink:href="#SVGID_19_"  style="overflow:visible;fill:#143ADB;"/>
				<clipPath id="SVGID_8_">
					<use xlink:href="#SVGID_19_"  style="overflow:visible;"/>
				</clipPath>
			</g>
		</g>
	</g>
	<g>
		<g>
			<defs>
				<circle id="SVGID_21_" cx="962.1" cy="398" r="64"/>
			</defs>
			<clipPath id="SVGID_10_">
				<use xlink:href="#SVGID_21_"  style="overflow:visible;"/>
			</clipPath>
			<g class="st20">
				<defs>
					<rect id="SVGID_23_" x="-2597.5" y="-1253.8" width="4163" height="3120.8"/>
				</defs>
				<clipPath id="SVGID_12_">
					<use xlink:href="#SVGID_23_"  style="overflow:visible;"/>
				</clipPath>
			</g>
		</g>
		<g>
			<defs>
				<circle id="SVGID_25_" cx="962.1" cy="398" r="39.6"/>
			</defs>
			<clipPath id="SVGID_14_">
				<use xlink:href="#SVGID_25_"  style="overflow:visible;"/>
			</clipPath>
			<g class="st22">
				<defs>
					<rect id="SVGID_27_" x="-2597.5" y="-1253.8" width="4163" height="3120.8"/>
				</defs>
				<clipPath id="SVGID_16_">
					<use xlink:href="#SVGID_27_"  style="overflow:visible;"/>
				</clipPath>
			</g>
		</g>
	</g>
	<g>
		<g>
			<defs>
				<polygon id="SVGID_29_" points="1122.7,379 1061.5,379 1092.1,440.2 				"/>
			</defs>
			<clipPath id="SVGID_18_">
				<use xlink:href="#SVGID_29_"  style="overflow:visible;"/>
			</clipPath>
			<g class="st24">
				<defs>
					<rect id="SVGID_31_" x="-2187.5" y="-1037.9" width="3620" height="2713.7"/>
				</defs>
				<clipPath id="SVGID_20_">
					<use xlink:href="#SVGID_31_"  style="overflow:visible;"/>
				</clipPath>
			</g>
		</g>
		<g>
			<defs>
				<path id="SVGID_33_" d="M1134.7,342.8v27.8c14.8,0,26.9,12.5,26.9,27.8c0,15.4-12,27.8-26.9,27.8v27.8
					c29.7,0,53.7-24.9,53.7-55.7C1188.4,367.7,1164.4,342.8,1134.7,342.8"/>
			</defs>
			<clipPath id="SVGID_22_">
				<use xlink:href="#SVGID_33_"  style="overflow:visible;"/>
			</clipPath>
			<g class="st26">
				<defs>
					<rect id="SVGID_35_" x="-2187.5" y="-1037.9" width="3620" height="2713.7"/>
				</defs>
				<clipPath id="SVGID_24_">
					<use xlink:href="#SVGID_35_"  style="overflow:visible;"/>
				</clipPath>
			</g>
		</g>
		<g>
			<defs>
				<path id="SVGID_37_" d="M1078.2,398.4h27.8c0-15.4,12.5-27.8,27.8-27.8c15.4,0,27.8,12.5,27.8,27.8h27.8
					c0-30.7-24.9-55.7-55.7-55.7C1103.1,342.8,1078.2,367.7,1078.2,398.4"/>
			</defs>
			<clipPath id="SVGID_26_">
				<use xlink:href="#SVGID_37_"  style="overflow:visible;"/>
			</clipPath>
			<g class="st28">
				<defs>
					<rect id="SVGID_39_" x="-2187.5" y="-1037.9" width="3620" height="2713.7"/>
				</defs>
				<clipPath id="SVGID_28_">
					<use xlink:href="#SVGID_39_"  style="overflow:visible;"/>
				</clipPath>
			</g>
		</g>
	</g>
	<g>
		<defs>
			<polygon id="SVGID_41_" points="748,334.4 748,462.4 876,398.4 			"/>
		</defs>
		<clipPath id="SVGID_30_">
			<use xlink:href="#SVGID_41_"  style="overflow:visible;"/>
		</clipPath>
		<g class="st30">
			<defs>
				<rect id="SVGID_43_" x="-2820.2" y="-1407.9" width="4559.5" height="3418"/>
			</defs>
			<clipPath id="SVGID_32_">
				<use xlink:href="#SVGID_43_"  style="overflow:visible;"/>
			</clipPath>
		</g>
	</g>
</g>
</svg>
