<?xml version="1.0" encoding="UTF-8"?>
<svg width="74px" height="75px" viewBox="0 0 74 75" version="1.1" xmlns="http://www.w3.org/2000/svg" xmlns:xlink="http://www.w3.org/1999/xlink">
    <!-- Generator: Sketch 50.2 (55047) - http://www.bohemiancoding.com/sketch -->
    <title>screen</title>
    <desc>Created with Sketch.</desc>
    <defs></defs>
    <g id="screen" stroke="none" stroke-width="1" fill="none" fill-rule="evenodd" fill-opacity="0.4">
        <g id="Group" transform="translate(57.500000, 18.500000) rotate(90.000000) translate(-57.500000, -18.500000) translate(44.000000, 5.000000)" fill="#2E50DF">
            <rect id="Rectangle-2" x="0" y="0" width="12" height="27"></rect>
            <rect id="Rectangle-2" transform="translate(13.500000, 6.000000) rotate(90.000000) translate(-13.500000, -6.000000) " x="7.5" y="-7.5" width="12" height="27"></rect>
        </g>
        <g id="Group" transform="translate(57.500000, 57.500000) rotate(180.000000) translate(-57.500000, -57.500000) translate(44.000000, 44.000000)" fill="#2E50DF">
            <rect id="Rectangle-2" x="0" y="0" width="12" height="27"></rect>
            <rect id="Rectangle-2" transform="translate(13.500000, 6.000000) rotate(90.000000) translate(-13.500000, -6.000000) " x="7.5" y="-7.5" width="12" height="27"></rect>
        </g>
        <g id="Group" transform="translate(18.500000, 57.500000) rotate(270.000000) translate(-18.500000, -57.500000) translate(5.000000, 44.000000)" fill="#2E50DF">
            <rect id="Rectangle-2" x="0" y="0" width="12" height="27"></rect>
            <rect id="Rectangle-2" transform="translate(13.500000, 6.000000) rotate(90.000000) translate(-13.500000, -6.000000) " x="7.5" y="-7.5" width="12" height="27"></rect>
        </g>
        <g id="Group" transform="translate(5.000000, 5.000000)" fill="#2E50DF">
            <rect id="Rectangle-2" x="0" y="0" width="12" height="27"></rect>
            <rect id="Rectangle-2" transform="translate(13.500000, 6.000000) rotate(90.000000) translate(-13.500000, -6.000000) " x="7.5" y="-7.5" width="12" height="27"></rect>
        </g>
    </g>
</svg>