<?xml version="1.0" encoding="UTF-8"?>
<svg width="40px" height="40px" viewBox="0 0 40 40" version="1.1" xmlns="http://www.w3.org/2000/svg" xmlns:xlink="http://www.w3.org/1999/xlink">
    <!-- Generator: Sketch 48.2 (47327) - http://www.bohemiancoding.com/sketch -->
    <title>picto-settings</title>
    <desc>Created with Sketch.</desc>
    <defs></defs>
    <g id="-" stroke="none" stroke-width="1" fill="none" fill-rule="evenodd">
        <g id="picto-settings">
            <path d="M36.99628,19.99998 C36.99628,10.67138 29.43388,3.10898 20.10528,3.10898 C10.77668,3.10898 3.21428,10.67138 3.21428,19.99998 C3.21428,29.32858 10.77668,36.89098 20.10528,36.89098 C29.43388,36.89098 36.99628,29.32858 36.99628,19.99998" id="Fill-1" fill="#143ADB" opacity="0.745923913"></path>
            <path d="M32.14676,19.99998 C32.14676,13.34978 26.75556,7.95858 20.10516,7.95858 C13.45496,7.95858 8.06376,13.34978 8.06376,19.99998 C8.06376,26.65038 13.45496,32.04138 20.10516,32.04138 C26.75556,32.04138 32.14676,26.65038 32.14676,19.99998" id="Fill-3" fill="#FFFFFF" opacity="0.754189312"></path>
            <path d="M24.22324,19.99998 C24.22324,17.72578 22.37964,15.88198 20.10524,15.88198 C17.83104,15.88198 15.98744,17.72578 15.98744,19.99998 C15.98744,22.27418 17.83104,24.11798 20.10524,24.11798 C22.37964,24.11798 24.22324,22.27418 24.22324,19.99998" id="Fill-5" fill="#143ADB"></path>
            <polygon id="Fill-7" fill="#143ADB" opacity="0.745923913" points="16.4132 3.5868 23.5866 3.5868 23.5866 0 16.4132 0"></polygon>
            <polygon id="Fill-9" fill="#143ADB" opacity="0.745923913" points="16.4132 40 23.5866 40 23.5866 36.4132 16.4132 36.4132"></polygon>
            <polygon id="Fill-11" fill="#143ADB" opacity="0.745923913" points="36.4132 23.5866 40 23.5866 40 16.4132 36.4132 16.4132"></polygon>
            <polygon id="Fill-13" fill="#143ADB" opacity="0.745923913" points="0 23.5866 3.5868 23.5866 3.5868 16.4132 0 16.4132"></polygon>
            <polygon id="Fill-15" fill="#143ADB" opacity="0.745923913" points="34.14218 29.06976 36.67838 31.60596 31.60598 36.67836 29.06978 34.14216"></polygon>
            <polygon id="Fill-17" fill="#143ADB" opacity="0.745923913" points="8.39404 3.32166 10.93024 5.85786 5.85784 10.93026 3.32164 8.39406"></polygon>
            <polygon id="Fill-19" fill="#143ADB" opacity="0.745923913" points="10.93026 34.14212 8.39406 36.67832 3.32166 31.60592 5.85786 29.06972"></polygon>
            <polygon id="Fill-21" fill="#143ADB" opacity="0.745923913" points="36.67832 8.39408 34.14212 10.93028 29.06972 5.85788 31.60592 3.32168"></polygon>
        </g>
    </g>
</svg>