<?xml version="1.0" encoding="UTF-8"?>
<svg width="60px" height="59px" viewBox="0 0 60 59" version="1.1" xmlns="http://www.w3.org/2000/svg" xmlns:xlink="http://www.w3.org/1999/xlink">
    <!-- Generator: Sketch 48.2 (47327) - http://www.bohemiancoding.com/sketch -->
    <title>picto-participation</title>
    <desc>Created with Sketch.</desc>
    <defs>
        <path d="M0.221791045,29.5918756 C0.221791045,45.8036667 13.5856716,58.9451095 30.0722388,58.9451095 C46.5585075,58.9451095 59.9229851,45.8036667 59.9229851,29.5918756 C59.9229851,13.3800846 46.5585075,0.238641791 30.0722388,0.238641791 C13.5856716,0.238641791 0.221791045,13.3800846 0.221791045,29.5918756 Z" id="path-1"></path>
        <path d="M0.0044015444,5.40215238 C0.0044015444,8.29943964 2.39297297,10.6484901 5.3393668,10.6484901 C8.28605405,10.6484901 10.6749189,8.29943964 10.6749189,5.40215238 C10.6749189,2.50457658 8.28605405,0.156103218 5.3393668,0.156103218 C2.39297297,0.156103218 0.0044015444,2.50457658 0.0044015444,5.40215238 Z" id="path-3"></path>
        <path d="M0.0311042471,5.40215238 C0.0311042471,8.29943964 2.41967568,10.6484901 5.3660695,10.6484901 C8.31275676,10.6484901 10.7016216,8.29943964 10.7016216,5.40215238 C10.7016216,2.50457658 8.31275676,0.156103218 5.3660695,0.156103218 C2.41967568,0.156103218 0.0311042471,2.50457658 0.0311042471,5.40215238 Z" id="path-5"></path>
        <path d="M8.9886,0.291682086 C8.9886,1.87488889 7.6806,3.15846667 6.0669,3.15846667 C4.4526,3.15846667 3.1446,1.87488889 3.1446,0.291682086 L0.2226,0.291682086 C0.2226,3.45839002 2.8392,6.02525125 6.0669,6.02525125 C9.2943,6.02525125 11.9109,3.45839002 11.9109,0.291682086 L8.9886,0.291682086 Z" id="path-7"></path>
    </defs>
    <g id="-" stroke="none" stroke-width="1" fill="none" fill-rule="evenodd">
        <g id="picto-participation">
            <g id="Group-29-Copy">
                <g id="Group-16" opacity="0.501132246">
                    <mask id="mask-2" fill="white">
                        <use xlink:href="#path-1"></use>
                    </mask>
                    <g id="Clip-15"></g>
                    <polygon id="Fill-14" fill="#143ADB" mask="url(#mask-2)" points="-5.20567164 64.2818209 65.3504478 64.2818209 65.3504478 -5.09865672 -5.20567164 -5.09865672"></polygon>
                </g>
                <g id="Group-19" transform="translate(14.285714, 21.352381)">
                    <mask id="mask-4" fill="white">
                        <use xlink:href="#path-3"></use>
                    </mask>
                    <g id="Clip-18"></g>
                    <polygon id="Fill-17" fill="#143ADB" mask="url(#mask-4)" points="-5.33085714 15.8945393 16.0098842 15.8945393 16.0098842 -5.09052304 -5.33085714 -5.09052304"></polygon>
                </g>
                <g id="Group-22" transform="translate(34.857143, 21.352381)">
                    <mask id="mask-6" fill="white">
                        <use xlink:href="#path-5"></use>
                    </mask>
                    <g id="Clip-21"></g>
                    <polygon id="Fill-20" fill="#143ADB" mask="url(#mask-6)" points="-5.30415444 15.8945393 16.0368803 15.8945393 16.0368803 -5.09052304 -5.30415444 -5.09052304"></polygon>
                </g>
                <g id="Group-25" transform="translate(24.000000, 40.457143)">
                    <mask id="mask-8" fill="white">
                        <use xlink:href="#path-7"></use>
                    </mask>
                    <g id="Clip-24"></g>
                    <polygon id="Fill-23" fill="#143ADB" mask="url(#mask-8)" points="-5.2317 11.3767787 17.3655 11.3767787 17.3655 -5.05984535 -5.2317 -5.05984535"></polygon>
                </g>
            </g>
        </g>
    </g>
</svg>